<?xml version="1.0" encoding="utf-8"?>
<!-- Generator: Adobe Illustrator 24.2.1, SVG Export Plug-In . SVG Version: 6.00 Build 0)  -->
<svg version="1.1" id="Capa_1" xmlns="http://www.w3.org/2000/svg" xmlns:xlink="http://www.w3.org/1999/xlink" x="0px" y="0px"
	 viewBox="0 0 512 512" style="enable-background:new 0 0 512 512;" xml:space="preserve">
<style type="text/css">
	.st0{fill:#1B48F2;}
	.st1{fill:#183EB7;}
	.st2{fill:#FFF6DC;}
	.st3{fill:#F6E4C1;}
	.st4{fill:#1E222D;}
</style>
<g>
	<g>
		<g>
			<g>
				<path class="st0" d="M174.1,174.1c10.5-10.5,5.1-47.6,5.1-47.6S177-8.7,121.9,9.1c-27.9,9-22.4,36.4-12.6,58.1
					c-18.1-8.6-34.5-9.7-43.1-1s-7.6,25,1,43.1C45.5,99.5,18.2,94,9.1,121.9c-17.8,55.1,117.4,57.4,117.4,57.4
					S163.7,184.6,174.1,174.1z"/>
				<path class="st0" d="M337.9,337.9c10.5-10.5,47.6-5.1,47.6-5.1s135.2,2.3,117.4,57.4c-9,27.9-36.4,22.4-58.1,12.6
					c8.6,18.1,9.7,34.5,1,43.1s-25,7.6-43.1-1c9.8,21.7,15.3,49.1-12.6,58.1c-55.1,17.8-57.4-117.4-57.4-117.4
					S327.4,348.3,337.9,337.9z"/>
			</g>
			<g>
				<path class="st1" d="M174.1,174.1c-10.5,10.5-47.6,5.1-47.6,5.1S-8.7,177,9.1,121.9c5.8-18,19.3-22.1,33.9-20.1
					c17.4,32,97.8,63.1,97.8,63.1S169.4,178.9,174.1,174.1z"/>
				<path class="st1" d="M390.1,502.9c-55.1,17.8-57.4-117.4-57.4-117.4s-5.4-37.1,5.1-47.6c-4.8,4.8,9.2,33.3,9.2,33.3
					s31.1,80.4,63.1,97.8C412.2,483.6,408.1,497,390.1,502.9z"/>
			</g>
			<path class="st2" d="M414.4,219.6c-38.8-42.5-79.5-83.2-122-122c-35-32-88.7-32.3-124-0.6c-25,22.5-48.8,46.3-71.3,71.3
				c-31.7,35.3-31.4,89,0.6,124c38.8,42.5,79.5,83.2,122,122c35,32,88.7,32.3,124,0.6c25-22.5,48.8-46.3,71.3-71.3
				C446.7,308.4,446.4,254.7,414.4,219.6L414.4,219.6z"/>
			<path class="st3" d="M361,398.9c-5.7,5.4-11.5,10.7-17.3,16c-35.3,31.7-89,31.4-124-0.6c-42.5-38.8-83.2-79.5-122-122
				c-32-35-32.3-88.7-0.6-124c5.3-5.8,10.6-11.6,16-17.3c-4.1,29.7,4.7,60.8,26.2,84.4c43.7,47.8,89.5,93.6,137.3,137.3
				C300.1,394.3,331.3,403.1,361,398.9L361,398.9z"/>
			<path class="st0" d="M365,167.6c-18.2,5.3-104.8,32.5-200.6,94.9c-18.7,12.2-37.8,25.7-56.8,40.7c-3.3-3.6-6.7-7.2-10-10.8
				c-15.4-16.8-23.4-38-24.1-59.3c15.2-11.2,30.4-21.4,45.3-30.9c90.4-57.2,170.9-83,190.6-88.8C328.3,131,346.8,149.1,365,167.6z"
				/>
			<path class="st0" d="M438.3,288.8c-37.8,13.9-98.5,40-163.7,82.2c-18.9,12.3-38.3,26-57.5,41.1c-19-17.5-37.7-35.3-56-53.5
				c19.1-15.1,38.3-28.8,57.2-41.1c92.4-60.3,176.4-87.9,198.9-94.7C433,241.8,440,265.5,438.3,288.8z"/>
			<g>
				<path class="st1" d="M139.3,235.4c8.3,9.1,16.7,18.1,25.1,27c-18.7,12.2-37.8,25.7-56.8,40.7c-3.3-3.6-6.7-7.2-10-10.8
					c-15.4-16.8-23.4-38-24.1-59.3c15.2-11.2,30.4-21.4,45.3-30.9C123.3,214.1,130.1,225.5,139.3,235.4L139.3,235.4z"/>
				<path class="st1" d="M274.6,371c-18.9,12.3-38.3,26-57.5,41.1c-19-17.5-37.7-35.3-56-53.5c19.1-15.1,38.3-28.8,57.2-41.1
					C236.8,335.7,255.5,353.5,274.6,371z"/>
			</g>
		</g>
		<g>
			<g>
				<path class="st2" d="M421.7,91.9l-1.7-1.7c-5.9-5.9-6.2-15.3-0.7-21.5l16.8-19.2c6-6.9,16.6-7.3,23.1-0.8l4.1,4.1
					c6.5,6.5,6.1,17-0.8,23.1l-19.2,16.8C437,98.1,427.6,97.8,421.7,91.9z"/>
				<path class="st2" d="M366.2,64.2l-2.3-0.6c-8-2.1-13-10.1-11.4-18.3l4.9-25c1.8-9,10.7-14.6,19.6-12.2l5.6,1.5
					c8.8,2.4,13.8,11.7,10.8,20.4L385.2,54C382.5,61.9,374.2,66.3,366.2,64.2z"/>
				<path class="st2" d="M448.4,148.1l-0.6-2.3c-2.1-8,2.3-16.3,10.1-19l24.1-8.3c8.6-3,18,2,20.4,10.8l1.5,5.6
					c2.4,8.8-3.2,17.8-12.2,19.6l-25,4.9C458.6,161.1,450.6,156.1,448.4,148.1L448.4,148.1z"/>
			</g>
			<g>
				<path class="st2" d="M90.3,420.1l1.7,1.7c5.9,5.9,6.2,15.3,0.7,21.5l-16.8,19.2c-6,6.9-16.6,7.3-23.1,0.8l-4.1-4.1
					c-6.5-6.5-6.1-17,0.8-23.1l19.2-16.8C75,413.9,84.4,414.2,90.3,420.1z"/>
				<path class="st2" d="M145.8,447.8l2.3,0.6c8,2.1,13,10.1,11.4,18.3l-4.9,25c-1.8,9-10.7,14.6-19.6,12.2l-5.6-1.5
					c-8.8-2.4-13.8-11.7-10.8-20.4l8.3-24.1C129.5,450.1,137.8,445.7,145.8,447.8L145.8,447.8z"/>
				<path class="st2" d="M63.6,363.9l0.6,2.3c2.1,8-2.3,16.3-10.1,19l-24.1,8.3c-8.6,3-18-2-20.4-10.8L8,377
					c-2.4-8.8,3.2-17.8,12.2-19.6l25-4.9C53.4,350.9,61.4,355.9,63.6,363.9z"/>
			</g>
		</g>
	</g>
	<g>
		<path class="st4" d="M506.8,362.9c-10.1-15.8-34.6-27-72.9-33.1c8-14.7,12.3-31.2,12.2-48.3c-0.1-24.8-9.4-48.6-26.1-66.9
			c-38.8-42.5-80-83.7-122.5-122.5c-18.3-16.7-42.1-26-66.9-26.1c-17.1-0.1-33.6,4.1-48.3,12.2c-1.9-11.7-4.3-22.3-7.2-31.6
			c-1.2-4-5.4-6.2-9.4-4.9c-4,1.2-6.2,5.4-4.9,9.4c3.2,10.3,5.8,22.5,7.7,36.3c-1.7,1.4-3.4,2.7-5,4.2
			c-25.1,22.6-49.3,46.8-71.9,71.9c-1.5,1.6-2.9,3.3-4.2,5c-36.9-5.1-61.5-14.8-69.4-27.4c-3.1-4.9-3.6-10.4-1.6-16.8
			c2.2-6.9,5.8-11.3,10.8-13.6c8.2-3.6,21-1.7,37.1,5.5c2.9,1.3,6.2,0.7,8.4-1.6s2.8-5.6,1.4-8.5c-7.4-15.5-8.3-28.7-2.5-34.6
			c5.8-5.8,19.1-4.9,34.6,2.5c2.8,1.4,6.2,0.8,8.5-1.4c2.2-2.2,2.9-5.6,1.6-8.4c-7.2-16.1-9.2-28.9-5.5-37.1
			c2.2-5,6.7-8.5,13.6-10.8c6.3-2,15.8-3.2,25.1,9.9c2.4,3.4,7.1,4.2,10.5,1.7s4.2-7.1,1.7-10.5C147.7-2.1,131.1-1.7,119.6,2
			c-11,3.6-18.7,10-22.7,19c-4,9-4.1,20.3-0.3,33.6c-15.1-3.9-27.6-1.7-35.7,6.3c-8.1,8.1-10.2,20.6-6.3,35.7
			C41.3,92.8,30,92.9,21,96.9c-9,4-15.4,11.6-19,22.7c-3.5,10.8-2.4,20.7,3.2,29.5c10.1,15.8,34.6,26.9,72.9,33.1
			c-8,14.7-12.3,31.2-12.2,48.3c0.1,24.8,9.4,48.6,26.1,66.9c38.8,42.5,80,83.7,122.5,122.5c9.4,8.6,20.2,15.2,32,19.7
			c3.9,1.5,8.2-0.5,9.7-4.4c1.5-3.9-0.5-8.2-4.4-9.7c-8.3-3.1-16-7.6-23-13.1c76.6-58.8,154.1-94.2,200.1-112.1
			c-3.1,14.2-9.8,27.4-19.7,38.3c-22.2,24.7-46.1,48.5-70.8,70.8c-16.5,14.9-37.9,22.6-60.3,21.6c-4.2-0.2-7.6,3-7.8,7.2
			s3,7.6,7.2,7.8c1.4,0.1,2.9,0.1,4.3,0.1c16.9,0,33.2-4.2,47.8-12.2c6.2,38.4,17.3,62.9,33.1,72.9c5.4,3.4,11.3,5.2,17.5,5.2
			c3.9,0,7.9-0.7,12-2c11-3.6,18.7-10,22.7-19c4-9,4.1-20.3,0.3-33.6c15.1,3.9,27.6,1.7,35.7-6.3s10.2-20.6,6.3-35.7
			c13.3,3.8,24.6,3.7,33.6-0.3c9-4,15.4-11.6,19-22.7C513.5,381.6,512.4,371.7,506.8,362.9L506.8,362.9z M173.4,102.6
			c15.7-14.1,35.9-21.8,57-21.7c21.1,0.1,41.3,8,56.9,22.2c2.5,2.3,5,4.6,7.5,6.9c-34.9,11.5-122.4,44.1-212.9,107.8
			c2.4-16.5,9.5-31.9,20.8-44.4C124.9,148.7,148.7,124.9,173.4,102.6L173.4,102.6z M81.2,236.7c100.2-72.8,198.6-106.4,226.1-114.9
			c14.7,13.9,29.3,28,43.6,42.3c-38.5,12.5-141.1,50.5-242.5,128.9c-1.8-1.9-3.5-3.8-5.3-5.7C90.4,273.3,82.7,255.5,81.2,236.7
			L81.2,236.7z M118.7,304.1c106.6-82.2,214.3-118.9,244.1-128c13.9,14.2,27.6,28.6,41,43.2C362,232.9,261.7,271,161.7,348.6
			C147.1,334,132.8,319.1,118.7,304.1L118.7,304.1z M217.6,402.2c-15.2-14-30.3-28.4-45.1-43c104.3-80.6,211.3-118,242-127.7
			c10.7,14.4,16.5,31.9,16.6,50c0,0.6,0,1.3,0,1.9C384.9,300.9,300.6,338,217.6,402.2L217.6,402.2z M495.7,387.8
			c-2.2,6.9-5.8,11.3-10.8,13.6c-8.2,3.6-21,1.7-37.1-5.5c-2.9-1.3-6.2-0.7-8.4,1.6s-2.8,5.6-1.4,8.5c7.4,15.5,8.3,28.7,2.5,34.6
			c-5.8,5.8-19.1,4.9-34.6-2.5c-2.8-1.4-6.2-0.8-8.5,1.4c-2.2,2.2-2.9,5.6-1.6,8.4c7.2,16.1,9.2,28.9,5.5,37.1
			c-2.2,5-6.7,8.5-13.6,10.8c-6.4,2.1-11.9,1.6-16.8-1.6c-12.6-8-22.2-32.6-27.4-69.4c1.7-1.4,3.4-2.7,5-4.2
			c25.1-22.6,49.3-46.8,71.9-71.9c1.5-1.6,2.9-3.3,4.2-5c36.9,5.1,61.4,14.8,69.4,27.4C497.3,375.9,497.8,381.4,495.7,387.8z"/>
		<path class="st4" d="M416.4,97.2c4.5,4.5,10.5,6.8,16.5,6.8c5.4,0,10.9-1.9,15.3-5.7l19.2-16.8c4.8-4.2,7.8-10.3,8-16.8
			s-2.3-12.7-6.8-17.3l-4.1-4.1c-4.5-4.5-10.8-7-17.3-6.8c-6.4,0.2-12.5,3.1-16.8,8l-16.8,19.2c-8,9.2-7.5,23.1,1.1,31.8L416.4,97.2
			z M425,73.7l16.8-19.2c1.5-1.7,3.6-2.8,6-2.8c0.1,0,0.2,0,0.3,0c2.2,0,4.3,0.9,5.8,2.4l4.1,4.1c1.6,1.6,2.5,3.8,2.4,6.1
			c-0.1,2.3-1.1,4.4-2.8,6L438.3,87c-3.3,2.8-8.2,2.7-11.3-0.4l-1.7-1.7C422.3,81.9,422.1,77,425,73.7z"/>
		<path class="st4" d="M362,70.8l2.3,0.6c2,0.5,4,0.8,6,0.8c9.7,0,18.8-6.1,22.1-15.7l8.3-24.1c2.1-6.1,1.5-12.8-1.5-18.5
			c-3-5.7-8.3-9.9-14.5-11.5l-5.6-1.5c-6.2-1.7-12.9-0.7-18.3,2.7c-5.5,3.4-9.3,9-10.5,15.3l-4.9,25C342.8,55.8,350.2,67.7,362,70.8
			z M359.9,46.7l4.9-25c0.4-2.3,1.8-4.2,3.7-5.4s4.3-1.6,6.5-1l5.6,1.5c2.2,0.6,4.1,2.1,5.2,4.1c1.1,2,1.3,4.4,0.5,6.6l-8.3,24.1
			c-1.4,4.1-5.8,6.4-10,5.3l-2.3-0.6C361.7,55.2,359,51,359.9,46.7z"/>
		<path class="st4" d="M440.6,147.8l0.6,2.3c2.8,10.3,12.2,17.3,22.5,17.3c1.5,0,3-0.1,4.4-0.4l25-4.9c6.3-1.2,11.9-5.1,15.3-10.5
			c3.4-5.5,4.4-12.1,2.7-18.3l-1.5-5.6c-1.7-6.2-5.9-11.5-11.5-14.5c-5.7-3-12.4-3.6-18.5-1.5l-24.1,8.3
			C444,123.7,437.4,136,440.6,147.8L440.6,147.8z M460.4,133.9l24.1-8.3c2.2-0.8,4.5-0.6,6.6,0.5c2,1.1,3.5,2.9,4.1,5.2l1.5,5.6
			c0.6,2.2,0.3,4.6-1,6.5c-1.2,2-3.2,3.3-5.4,3.7l-25,4.9c-4.3,0.8-8.5-1.8-9.6-6l-0.6-2.3C453.9,139.7,456.3,135.3,460.4,133.9z"/>
		<path class="st4" d="M95.6,414.7c-8.6-8.6-22.6-9.1-31.8-1.1l-19.2,16.8c-4.8,4.2-7.8,10.3-8,16.8c-0.2,6.4,2.3,12.7,6.8,17.3
			l4.1,4.1c4.4,4.4,10.3,6.8,16.5,6.8c0.3,0,0.5,0,0.8,0c6.4-0.2,12.5-3.1,16.8-8l16.8-19.2c8-9.2,7.5-23.1-1.1-31.8L95.6,414.7z
			 M87,438.3l-16.8,19.2c-1.5,1.7-3.6,2.8-6,2.8c-2.3,0.1-4.5-0.8-6.1-2.4l-4.1-4.1c-1.6-1.6-2.5-3.8-2.4-6.1c0.1-2.3,1.1-4.4,2.8-6
			L73.7,425c1.6-1.4,3.5-2,5.4-2c2.1,0,4.3,0.8,5.9,2.4l1.7,1.7C89.7,430.1,89.9,435,87,438.3z"/>
		<path class="st4" d="M150,441.2l-2.3-0.6c-11.8-3.2-24.1,3.4-28,14.9l-8.3,24.1c-2.1,6.1-1.5,12.8,1.5,18.5s8.3,9.9,14.5,11.5
			l5.6,1.5c2,0.5,4,0.8,6,0.8c4.3,0,8.6-1.2,12.3-3.5c5.5-3.4,9.3-9,10.5-15.3l4.9-25C169.2,456.2,161.8,444.3,150,441.2L150,441.2z
			 M152.1,465.2l-4.9,25c-0.4,2.3-1.8,4.2-3.7,5.4c-2,1.2-4.3,1.6-6.5,1l-5.6-1.5c-2.2-0.6-4.1-2.1-5.2-4.1s-1.3-4.4-0.5-6.6
			l8.3-24.1c1.2-3.4,4.4-5.6,7.8-5.6c0.7,0,1.4,0.1,2.1,0.3l2.3,0.6C150.4,456.8,153,461,152.1,465.2L152.1,465.2z"/>
		<path class="st4" d="M71.4,364.2l-0.6-2.3c-3.2-11.8-15-19.2-27-16.8l-25,4.9c-6.3,1.2-11.9,5.1-15.3,10.5s-4.4,12.1-2.7,18.3
			l1.5,5.6c1.7,6.2,5.9,11.5,11.5,14.5c3.4,1.8,7.2,2.7,11,2.7c2.5,0,5.1-0.4,7.5-1.3l24.1-8.3C68,388.3,74.6,376,71.4,364.2z
			 M51.6,378.1l-24.1,8.3c-2.2,0.8-4.5,0.6-6.6-0.5c-2-1.1-3.5-2.9-4.1-5.2l-1.5-5.6c-0.6-2.2-0.3-4.6,1-6.5s3.2-3.3,5.4-3.7l25-4.9
			c0.5-0.1,1.1-0.2,1.6-0.2c3.7,0,7,2.5,8,6.1l0.6,2.3C58.1,372.3,55.7,376.7,51.6,378.1z"/>
	</g>
</g>
</svg>
